<svg width="45" height="45" viewBox="0 0 45 45" fill="none" xmlns="http://www.w3.org/2000/svg">
<rect width="45" height="45" rx="10" fill="#0075DF" fill-opacity="0.15"/>
<path d="M33.7148 15.1953H26.8594V11.2852C26.8594 10.0251 25.8343 9 24.5742 9H12.2852C11.0251 9 10 10.0251 10 11.2852V32.7148C10 33.9749 11.0251 35 12.2852 35H24.5742C25.8343 35 26.8594 33.9749 26.8594 32.7148V28.46L29.46 25.8594H33.7148C34.9749 25.8594 36 24.8343 36 23.5742V17.4805C36 16.2204 34.9749 15.1953 33.7148 15.1953ZM11.5234 11.2852C11.5234 10.8651 11.8651 10.5234 12.2852 10.5234H24.5742C24.9942 10.5234 25.3359 10.8651 25.3359 11.2852V12.0469H11.5234V11.2852ZM25.3359 32.7148C25.3359 33.1349 24.9942 33.4766 24.5742 33.4766H12.2852C11.8651 33.4766 11.5234 33.1349 11.5234 32.7148V30.4297H25.3359V32.7148ZM25.3359 28.9062H11.5234V13.5703H25.3359V15.1953H24.5742C23.3142 15.1953 22.2891 16.2204 22.2891 17.4805V23.5742C22.2891 24.8343 23.3142 25.8594 24.5742 25.8594H25.3359C25.3359 26.2094 25.3359 28.5778 25.3359 28.9062ZM34.4766 23.5742C34.4766 23.9942 34.1349 24.3359 33.7148 24.3359H29.1445C28.9425 24.3359 28.7488 24.4162 28.6059 24.559L26.8594 26.3056V25.0978V25.0977C26.8594 24.677 26.5183 24.3359 26.0977 24.3359H24.5742C24.1542 24.3359 23.8125 23.9942 23.8125 23.5742V17.4805C23.8125 17.0605 24.1542 16.7188 24.5742 16.7188H33.7148C34.1349 16.7188 34.4766 17.0605 34.4766 17.4805V23.5742Z" fill="#0075DF"/>
<path d="M32.1914 18.2422H26.0977C25.677 18.2422 25.3359 18.5832 25.3359 19.0039C25.3359 19.4246 25.677 19.7656 26.0977 19.7656H32.1914C32.6121 19.7656 32.9531 19.4246 32.9531 19.0039C32.9531 18.5832 32.6121 18.2422 32.1914 18.2422Z" fill="#0075DF"/>
<path d="M29.1445 21.2891H26.0977C25.677 21.2891 25.3359 21.6301 25.3359 22.0508C25.3359 22.4715 25.677 22.8125 26.0977 22.8125H29.1445C29.5652 22.8125 29.9062 22.4715 29.9062 22.0508C29.9062 21.6301 29.5652 21.2891 29.1445 21.2891Z" fill="#0075DF"/>
</svg>
