<svg width="26" height="20" viewBox="0 0 26 20" fill="none" xmlns="http://www.w3.org/2000/svg">
<path d="M25.4255 13.3596C25.4213 13.3099 25.4104 13.2611 25.3933 13.2143L25.3792 13.1761C25.2936 12.8575 25.1788 12.5475 25.0362 12.2499L22.2053 4.60386C21.953 3.83563 21.4621 3.16791 20.804 2.69802L20.7032 1.98257C20.6984 1.9489 20.6906 1.91573 20.6799 1.88346C20.3002 0.75397 19.2394 -0.00512832 18.0479 2.60876e-05C16.5548 2.60876e-05 15.3123 1.22465 15.2781 2.7299V2.75455L15.302 3.86146C15.0443 4.30065 14.8785 4.78752 14.8146 5.29271H10.7511C10.6871 4.78813 10.5216 4.30172 10.2644 3.86292L10.2881 2.77534C10.2881 2.76705 10.2881 2.76212 10.2881 2.75382C10.2538 1.24857 9.01128 0.0256301 7.5183 0.0256301C6.32657 0.0208118 5.26582 0.780191 4.8863 1.9099C4.87588 1.94128 4.86826 1.97355 4.8635 2.00627L4.76209 2.69797C4.10418 3.16791 3.61339 3.83547 3.3611 4.60358L0.530268 12.2499C0.387737 12.5474 0.27294 12.8575 0.187332 13.1761L0.173213 13.2142C0.156013 13.2611 0.1452 13.3102 0.140998 13.3599C-0.534229 16.2741 1.28074 19.1838 4.19488 19.859C7.10903 20.5342 10.0187 18.7192 10.694 15.8051C10.7869 15.404 10.8338 14.9936 10.8338 14.5819C10.8338 14.5231 10.8325 14.4642 10.8306 14.4061C10.8328 14.3845 10.8339 14.3628 10.8338 14.3411L10.8218 12.4642H14.7451L14.7326 14.4532C14.7326 14.4626 14.7335 14.4735 14.7339 14.4828C14.7333 14.5152 14.7326 14.5485 14.7326 14.581C14.7336 17.5722 17.1592 19.9962 20.1504 19.9953C23.1415 19.9943 25.5656 17.5687 25.5646 14.5775C25.5644 14.1676 25.5178 13.759 25.4255 13.3596ZM7.51824 1.14783C8.37399 1.14783 9.09151 1.82738 9.16233 2.68217C8.24507 2.03943 7.09172 1.83225 6.00806 2.11546C6.27654 1.52332 6.86806 1.1443 7.51824 1.14783ZM4.41551 4.98316C4.41804 4.97633 4.42044 4.96943 4.42269 4.96254C4.88546 3.55169 6.40439 2.78313 7.81524 3.2459C8.38738 3.43359 8.87996 3.8079 9.21404 4.30883C9.22458 4.32738 9.23623 4.3453 9.24884 4.36256C9.51686 4.78466 9.659 5.27444 9.65861 5.77442L9.69352 11.2617C7.99665 9.07162 4.91908 8.51813 2.56547 9.97986L4.41551 4.98316ZM9.27573 16.471C8.55462 17.9439 7.05776 18.8777 5.41782 18.8775V18.8773C3.04478 18.8765 1.12168 16.9522 1.12241 14.5792C1.12252 14.2204 1.16757 13.8631 1.25648 13.5156L1.5607 12.6939C2.60374 10.5634 5.17635 9.68191 7.3068 10.7249C9.43725 11.768 10.3188 14.3407 9.27573 16.471ZM14.7516 11.3436H10.8147L10.8091 10.5032H14.7572L14.7516 11.3436ZM14.7645 9.38267H10.8022L10.7835 6.41329H14.7829L14.7645 9.38267ZM18.0481 1.12055C18.7102 1.11691 19.3101 1.51016 19.5708 2.11877C18.4831 1.83051 17.3237 2.03708 16.4025 2.68323C16.4593 1.81516 17.1828 1.12055 18.0481 1.12055ZM15.9077 5.77039C15.9077 4.3044 17.1126 3.11172 18.5937 3.11172C19.0707 3.11127 19.5392 3.23823 19.9507 3.47948C19.9781 3.49987 20.0073 3.51774 20.038 3.53287C20.561 3.8669 20.9517 4.37208 21.1436 4.96226C21.1459 4.96938 21.1483 4.97627 21.1508 4.98311L23.0009 9.9798C20.6475 8.51819 17.5703 9.07128 15.8733 11.2609L15.9077 5.77039ZM21.2121 18.7431C20.8646 18.832 20.5072 18.8771 20.1485 18.8772L20.1486 18.8773C17.7763 18.878 15.8526 16.9555 15.8519 14.5831C15.8511 12.2108 17.7737 10.2871 20.146 10.2864C21.7868 10.2859 23.2845 11.2201 24.0056 12.6938L24.3098 13.5155C24.898 15.8145 23.5111 18.155 21.2121 18.7431Z" fill="white"/>
</svg>
