<svg width="64" height="50" viewBox="0 0 64 50" fill="none" xmlns="http://www.w3.org/2000/svg">
<path d="M63.5637 33.3989C63.5532 33.2748 63.5261 33.1527 63.4832 33.0358L63.4479 32.9402C63.2339 32.1437 62.9469 31.3687 62.5906 30.6248L55.5132 11.5097C54.8825 9.58908 53.6552 7.91978 52.01 6.74506L51.7579 4.95642C51.746 4.87224 51.7265 4.78932 51.6996 4.70864C50.7505 1.88493 48.0986 -0.0128208 45.1196 6.52189e-05C41.387 6.52189e-05 38.2808 3.06162 38.1954 6.82475V6.88638L38.255 9.65365C37.6107 10.7516 37.1963 11.9688 37.0365 13.2318H26.8778C26.7178 11.9703 26.304 10.7543 25.6609 9.6573L25.7202 6.93835C25.7202 6.91762 25.7202 6.90529 25.7202 6.88456C25.6346 3.12142 22.5282 0.0640752 18.7957 0.0640752C15.8164 0.0520296 13.1646 1.95048 12.2158 4.77476C12.1897 4.85319 12.1707 4.93387 12.1587 5.01567L11.9052 6.74492C10.2604 7.91978 9.03347 9.58866 8.40275 11.509L1.32567 30.6247C0.969343 31.3686 0.682349 32.1437 0.468329 32.9402L0.433032 33.0356C0.390032 33.1529 0.363 33.2754 0.352495 33.3998C-1.33557 40.6851 3.20185 47.9594 10.4872 49.6475C17.7726 51.3356 25.0469 46.798 26.7349 39.5128C26.9673 38.5101 27.0845 37.4841 27.0844 36.4548C27.0844 36.3077 27.0812 36.1606 27.0766 36.0152C27.082 35.9613 27.0847 35.907 27.0844 35.8527L27.0546 31.1606H36.8628L36.8316 36.1329C36.8316 36.1564 36.8337 36.1837 36.8346 36.207C36.8332 36.2881 36.8316 36.3711 36.8316 36.4525C36.8339 43.9305 42.8979 49.9905 50.3759 49.9882C57.8538 49.9858 63.9139 43.9218 63.9115 36.4438C63.9111 35.419 63.7944 34.3975 63.5637 33.3989ZM18.7956 2.86959C20.935 2.86959 22.7288 4.56844 22.9058 6.70542C20.6127 5.09859 17.7293 4.58062 15.0201 5.28866C15.6913 3.8083 17.1702 2.86076 18.7956 2.86959ZM11.0388 12.4579C11.0451 12.4408 11.0511 12.4236 11.0567 12.4064C12.2137 8.87923 16.011 6.95781 19.5381 8.11476C20.9684 8.58397 22.1999 9.51975 23.0351 10.7721C23.0614 10.8184 23.0906 10.8633 23.1221 10.9064C23.7922 11.9617 24.1475 13.1861 24.1465 14.436L24.2338 28.1543C19.9916 22.679 12.2977 21.2953 6.41369 24.9496L11.0388 12.4579ZM23.1893 41.1776C21.3865 44.8598 17.6444 47.1941 13.5446 47.1937V47.1931C7.61195 47.1913 2.8042 42.3805 2.80602 36.4479C2.8063 35.5511 2.91891 34.6577 3.1412 33.7889L3.90175 31.7347C6.50935 26.4086 12.9409 24.2048 18.267 26.8124C23.5931 29.42 25.7969 35.8516 23.1893 41.1776ZM36.879 28.359H27.0366L27.0226 26.258H36.893L36.879 28.359ZM36.9112 23.4567H27.0054L26.9588 16.0332H36.9573L36.9112 23.4567ZM45.1202 2.80137C46.7755 2.79227 48.2752 3.77539 48.927 5.29692C46.2078 4.57628 43.3092 5.0927 41.0062 6.70808C41.1482 4.5379 42.957 2.80137 45.1202 2.80137ZM39.7693 14.426C39.7693 10.761 42.7815 7.7793 46.4842 7.7793C47.6767 7.77818 48.848 8.09557 49.8768 8.69869C49.9453 8.74967 50.0183 8.79435 50.0949 8.83217C51.4024 9.66724 52.3794 10.9302 52.8591 12.4057C52.8647 12.4234 52.8707 12.4407 52.877 12.4578L57.5021 24.9495C51.6188 21.2955 43.9257 22.6782 39.6831 28.1524L39.7693 14.426ZM53.0303 46.8578C52.1614 47.0801 51.2681 47.1927 50.3713 47.193L50.3715 47.1933C44.4407 47.1951 39.6315 42.3886 39.6296 36.4578C39.6278 30.527 44.4343 25.7178 50.3651 25.7159C54.4669 25.7147 58.2111 28.0503 60.0141 31.7345L60.7746 33.7887C62.245 39.5362 58.7778 45.3874 53.0303 46.8578Z" fill="#0075DF"/>
<path d="M13.5439 26.8599C8.24513 26.8599 3.94946 31.1554 3.94946 36.4544C3.94946 41.7532 8.24513 46.0489 13.5439 46.0489C18.8429 46.0489 23.1384 41.7532 23.1384 36.4544C23.1327 31.1579 18.8405 26.8658 13.5439 26.8599ZM13.5439 43.2477C9.79215 43.2477 6.75077 40.2063 6.75077 36.4545C6.75077 32.7027 9.79215 29.6613 13.5439 29.6613C17.2957 29.6613 20.3371 32.7027 20.3371 36.4545C20.3331 40.2045 17.2941 43.2435 13.5439 43.2477Z" fill="#0075DF"/>
<path d="M50.2009 26.8599C44.902 26.8599 40.6064 31.1554 40.6064 36.4544C40.6064 41.7532 44.902 46.0489 50.2009 46.0489C55.4997 46.0489 59.7954 41.7532 59.7954 36.4544C59.7895 31.1579 55.4974 26.8658 50.2009 26.8599ZM50.2009 43.2477C46.4491 43.2477 43.4078 40.2063 43.4078 36.4545C43.4078 32.7027 46.4491 29.6613 50.2009 29.6613C53.9527 29.6613 56.9941 32.7027 56.9941 36.4545C56.99 40.2045 53.9509 43.2436 50.2009 43.2477Z" fill="#0075DF"/>
</svg>
