<svg width="75" height="60" viewBox="0 0 75 60" fill="none" xmlns="http://www.w3.org/2000/svg">
<path d="M18.7502 26.2504C22.8865 26.2504 26.2497 22.8866 26.2497 18.7502C26.2497 14.6139 22.8865 11.2501 18.7502 11.2501C14.6139 11.2501 11.25 14.6139 11.25 18.7502C11.25 22.8866 14.6139 26.2504 18.7502 26.2504Z" fill="#BED4E9"/>
<path d="M65.6243 0H9.3747C4.20773 0 0 4.20773 0 9.37539V50.6246C0 55.7923 4.20773 60 9.3747 60H65.6243C70.7919 60 74.9996 55.7923 74.9996 50.6246V9.37539C74.9996 4.20773 70.7919 0 65.6243 0ZM9.3747 7.50017H65.6243C66.6597 7.50017 67.4995 8.33993 67.4995 9.37539V35.9964L55.6536 22.1737C54.397 20.7001 52.5781 19.9126 50.6246 19.8679C48.6821 19.8789 46.8598 20.7413 45.6149 22.2341L31.6871 38.951L27.1498 34.4247C24.5852 31.8601 20.4111 31.8601 17.8499 34.4247L7.50017 44.771V9.37539C7.50017 8.33993 8.33993 7.50017 9.3747 7.50017Z" fill="#BED4E9"/>
</svg>
