<svg width="25" height="25" viewBox="0 0 25 25" fill="none" xmlns="http://www.w3.org/2000/svg">
<path d="M12.6251 8.18707C10.3727 8.18707 8.54034 10.0196 8.54034 12.272C8.54034 14.5242 10.3729 16.3567 12.6251 16.3567C14.8775 16.3567 16.71 14.5242 16.71 12.272C16.71 10.0196 14.8775 8.18707 12.6251 8.18707ZM12.6251 14.9508C11.148 14.9508 9.94623 13.7491 9.94623 12.272C9.94623 10.7949 11.148 9.59314 12.6251 9.59314C14.1022 9.59314 15.3041 10.7949 15.3041 12.272C15.3041 13.7491 14.1022 14.9508 12.6251 14.9508Z" fill="#0075DF"/>
<path d="M23.9286 11.569H21.348C21.0074 7.30304 17.5941 3.88977 13.3281 3.54919V0.982239C13.3281 0.594055 13.0134 0.279297 12.6252 0.279297C12.237 0.279297 11.9222 0.594055 11.9222 0.982239V3.54919C7.65625 3.88977 4.24316 7.30304 3.9024 11.569H1.33453C0.94635 11.569 0.631592 11.8836 0.631592 12.272C0.631592 12.6602 0.94635 12.9749 1.33453 12.9749H3.9024C4.24316 17.2407 7.65643 20.654 11.9222 20.9948V23.5615C11.9222 23.9497 12.237 24.2645 12.6252 24.2645C13.0135 24.2645 13.3283 23.9497 13.3283 23.5615V20.9948C17.5941 20.654 21.0074 17.2409 21.348 12.9749H23.9286C24.3168 12.9749 24.6316 12.6602 24.6316 12.272C24.6316 11.8836 24.3168 11.569 23.9286 11.569ZM12.6252 19.6171C8.57507 19.6171 5.28009 16.3221 5.28009 12.272C5.28009 8.22186 8.57526 4.92688 12.6252 4.92688C16.6753 4.92688 19.9705 8.22186 19.9705 12.272C19.9705 16.3221 16.6755 19.6171 12.6252 19.6171Z" fill="#0075DF"/>
</svg>
