<svg width="18" height="24" viewBox="0 0 18 24" fill="none" xmlns="http://www.w3.org/2000/svg">
<path d="M9 0C4.0365 0 0 4.0365 0 9C0 15.2385 8.124 23.4345 8.469 23.781C8.616 23.9265 8.808 24 9 24C9.192 24 9.384 23.9265 9.531 23.781C9.876 23.4345 18 15.2385 18 9C18 4.0365 13.9635 0 9 0ZM9 22.1655C7.209 20.2485 1.5 13.7655 1.5 9C1.5 4.8645 4.8645 1.5 9 1.5C13.1355 1.5 16.5 4.8645 16.5 9C16.5 13.761 10.791 20.2485 9 22.1655Z" fill="#0075DF"/>
<path d="M9 4.5C6.519 4.5 4.5 6.519 4.5 9C4.5 11.481 6.519 13.5 9 13.5C11.481 13.5 13.5 11.481 13.5 9C13.5 6.519 11.481 4.5 9 4.5ZM9 12C7.3455 12 6 10.6545 6 9C6 7.3455 7.3455 6 9 6C10.6545 6 12 7.3455 12 9C12 10.6545 10.6545 12 9 12Z" fill="#0075DF"/>
</svg>
