<svg width="24" height="24" viewBox="0 0 24 24" fill="none" xmlns="http://www.w3.org/2000/svg">
<path d="M23.9405 17.844C23.8703 17.5787 23.7453 17.3311 23.5736 17.1172C23.4018 16.9033 23.1872 16.7278 22.9434 16.602L17.8255 13.9484C17.4125 13.7293 16.9346 13.666 16.4789 13.7701C16.0232 13.8742 15.6201 14.1388 15.3431 14.5155L14.5156 15.6498C14.4731 15.7088 14.4105 15.7502 14.3397 15.7662C14.2688 15.7822 14.1946 15.7717 14.1309 15.7368C12.914 15.0439 11.7999 14.1841 10.821 13.1825C9.81998 12.2029 8.96076 11.0882 8.26824 9.87056C8.23331 9.80682 8.22287 9.73251 8.23887 9.6616C8.25487 9.5907 8.29621 9.52809 8.35512 9.48555L9.48462 8.65757C9.86111 8.38039 10.1255 7.97703 10.2295 7.52105C10.3336 7.06508 10.2704 6.58687 10.0514 6.17364L7.41595 1.05674C7.28938 0.812512 7.1128 0.597713 6.89772 0.426339C6.68264 0.254965 6.43389 0.130862 6.16767 0.0621184C5.90145 -0.00662533 5.62375 -0.0184671 5.35265 0.0273647C5.08155 0.0731965 4.82315 0.175673 4.59428 0.328117L1.37956 2.48086C0.928158 2.7816 0.563664 3.19576 0.322589 3.68184C0.0815151 4.16792 -0.0276748 4.70885 0.00595804 5.25044C0.0485055 6.16615 0.171725 7.07632 0.374182 7.97035C1.24716 11.3402 3.35307 14.8053 6.27818 17.7363C9.20328 20.6674 12.6704 22.7663 16.0382 23.6316C16.9317 23.8341 17.8413 23.9574 18.7564 24H18.9633C19.4682 23.9989 19.9651 23.8742 20.4108 23.6368C20.8565 23.3994 21.2373 23.0565 21.5202 22.638L23.6633 19.4213C23.818 19.1928 23.9227 18.9341 23.9704 18.6623C24.0182 18.3905 24.008 18.1116 23.9405 17.844ZM22.2856 18.4981L20.1548 21.7189C20.0134 21.9278 19.8199 22.0961 19.5935 22.2072C19.3671 22.3183 19.1156 22.3683 18.864 22.3523C18.0524 22.3148 17.2454 22.2082 16.4519 22.0336C13.3654 21.2304 10.1714 19.2888 7.45318 16.5565C4.73494 13.8242 2.78625 10.6406 1.98361 7.55222C1.80765 6.75835 1.69969 5.9509 1.6609 5.13867C1.64436 4.88737 1.69414 4.63614 1.80525 4.41017C1.91635 4.18419 2.08487 3.99142 2.29391 3.85116L5.50863 1.7067C5.55757 1.67391 5.61523 1.65661 5.67412 1.65702H5.75273C5.79347 1.66765 5.8315 1.68679 5.8643 1.71319C5.89711 1.7396 5.92395 1.77266 5.94305 1.8102L8.59095 6.93124C8.62386 6.99474 8.63319 7.06787 8.61728 7.13761C8.60137 7.20735 8.56126 7.26918 8.50407 7.31211L7.37457 8.14009C6.99156 8.42521 6.72619 8.84084 6.62862 9.30843C6.53104 9.77602 6.60801 10.2632 6.84499 10.6778C7.61077 12.0172 8.55748 13.2445 9.65839 14.3251C10.7382 15.4267 11.9648 16.374 13.3034 17.1402C13.7178 17.3773 14.2047 17.4543 14.672 17.3567C15.1393 17.2591 15.5546 16.9935 15.8396 16.6103L16.6671 15.476C16.71 15.4187 16.7717 15.3786 16.8414 15.3627C16.9111 15.3468 16.9842 15.3561 17.0477 15.389L22.1656 18.0386C22.203 18.0582 22.236 18.0855 22.2622 18.1186C22.2885 18.1518 22.3075 18.1901 22.318 18.2311C22.3286 18.272 22.3304 18.3148 22.3234 18.3565C22.3163 18.3982 22.3006 18.438 22.2773 18.4732L22.2856 18.4981Z" fill="#0075DF"/>
</svg>
