<svg width="22" height="24" viewBox="0 0 22 24" fill="none" xmlns="http://www.w3.org/2000/svg">
<path d="M14.5536 15.8571C17.1075 11.8496 16.7864 12.3496 16.86 12.2451C17.7898 10.9336 18.2812 9.39009 18.2812 7.78125C18.2812 3.51469 14.819 0 10.5469 0C6.28866 0 2.8125 3.50775 2.8125 7.78125C2.8125 9.38906 3.31425 10.973 4.27453 12.3022L6.54009 15.8572C4.11783 16.2294 0 17.3387 0 19.7812C0 20.6716 0.581156 21.9405 3.34978 22.9293C5.283 23.6197 7.83895 24 10.5469 24C15.6105 24 21.0938 22.5716 21.0938 19.7812C21.0938 17.3383 16.9808 16.2301 14.5536 15.8571ZM5.44917 11.5287C5.44144 11.5166 5.43337 11.5048 5.42494 11.4931C4.62586 10.3938 4.21875 9.09098 4.21875 7.78125C4.21875 4.26478 7.05028 1.40625 10.5469 1.40625C14.0362 1.40625 16.875 4.26605 16.875 7.78125C16.875 9.09309 16.4756 10.3517 15.7197 11.4221C15.652 11.5114 16.0054 10.9624 10.5469 19.5276L5.44917 11.5287ZM10.5469 22.5938C5.01591 22.5938 1.40625 20.968 1.40625 19.7812C1.40625 18.9836 3.261 17.6721 7.371 17.1609L9.95391 21.2138C10.083 21.4164 10.3066 21.5391 10.5468 21.5391C10.7871 21.5391 11.0107 21.4164 11.1398 21.2138L13.7226 17.1609C17.8327 17.6721 19.6875 18.9836 19.6875 19.7812C19.6875 20.9579 16.1103 22.5938 10.5469 22.5938Z" fill="#0075DF"/>
<path d="M10.5469 4.26562C8.60836 4.26562 7.03125 5.84273 7.03125 7.78125C7.03125 9.71977 8.60836 11.2969 10.5469 11.2969C12.4854 11.2969 14.0625 9.71977 14.0625 7.78125C14.0625 5.84273 12.4854 4.26562 10.5469 4.26562ZM10.5469 9.89062C9.38377 9.89062 8.4375 8.94436 8.4375 7.78125C8.4375 6.61814 9.38377 5.67188 10.5469 5.67188C11.71 5.67188 12.6562 6.61814 12.6562 7.78125C12.6562 8.94436 11.71 9.89062 10.5469 9.89062Z" fill="#0075DF"/>
</svg>
