<svg width="254" height="203" viewBox="0 0 254 203" fill="none" xmlns="http://www.w3.org/2000/svg">
<path opacity="0.8" d="M231.387 11.4953C226.08 6.37213 214.392 0.283416 199.63 0.28684C159.771 0.547277 141.325 13.0478 116.654 34.1155C89.2714 58.8257 83.1223 41.3917 36.2033 61.9604C-10.7221 82.529 -20.7341 177.387 60.6095 196.303C171.774 222.165 248.1 170.615 253.149 84.8848C256.478 38.9474 245.509 25.136 231.387 11.4953Z" fill="#71CFEE" fill-opacity="0.3"/>
<path d="M169.987 37.4896L111.595 31.4388L53.2019 38.2819V183.844L111.595 180.241L169.987 184.236L228.307 178.139V34.1064L169.987 37.4896Z" fill="white"/>
<path d="M112.848 176.923L57.3669 180.341V42.2543L112.848 35.7626V176.923Z" fill="url(#paint0_linear)"/>
<path d="M168.328 180.712L112.848 176.923V35.7626L168.328 41.5033V180.712Z" fill="url(#paint1_linear)"/>
<path d="M223.74 174.928L168.328 180.712V41.5032L223.74 38.2936V174.928Z" fill="url(#paint2_linear)"/>
<path opacity="0.47" d="M112.846 35.7626H111.591V176.961H112.846V35.7626Z" fill="white"/>
<path d="M58.3271 181.781C58.3271 181.781 58.0425 186.813 58.0405 186.823C57.9357 187.461 57.5237 189.04 57.5237 189.62C57.5237 191.802 67.2226 187.768 65.0486 186.802C64.852 186.715 63.515 185.559 63.4507 184.816C63.3509 183.672 63.4043 181.852 63.4043 181.852L58.3271 181.781Z" fill="#F7A491"/>
<path d="M65.0252 186.781C65.0252 186.781 62.7485 187.448 61.5814 187.615C60.4154 187.782 58.8778 186.376 58.0527 186.756C57.1445 187.174 57.0823 191.985 57.0823 191.985C57.0823 191.985 69.0214 192.899 72.0758 192.014C73.4494 191.615 69.6805 188.336 65.0252 186.781Z" fill="#355389"/>
<path d="M77.0273 181.781C77.0273 181.781 76.7427 186.813 76.7407 186.823C76.636 187.461 76.2239 189.04 76.2239 189.62C76.2239 191.802 85.9228 187.768 83.7488 186.802C83.5522 186.715 82.2162 185.559 82.1509 184.816C82.0511 183.672 82.1045 181.852 82.1045 181.852L77.0273 181.781Z" fill="#F7A491"/>
<path d="M83.7247 186.781C83.7247 186.781 81.448 187.448 80.2819 187.615C79.1159 187.782 77.5783 186.376 76.7532 186.756C75.8451 187.174 75.7828 191.985 75.7828 191.985C75.7828 191.985 87.7219 192.899 90.7763 192.014C92.1499 191.615 88.38 188.336 83.7247 186.781Z" fill="#355389"/>
<path d="M95.8986 53.5301C95.5641 55.9848 95.9788 55.9341 95.9274 56.248C95.8669 56.6188 92.531 60.3939 92.531 60.3939C92.531 60.3939 82.7708 71.5825 82.2241 72.1681L68.4641 78.6328L69.4971 86.4074C69.4971 86.4074 84.2931 78.9742 85.0034 78.4499C85.7137 77.9256 97.2143 61.2842 98.2733 59.852C98.2733 59.852 100.143 58.6001 101.293 57.7749C102.443 56.9496 103.187 55.657 103.476 55.3742C103.519 55.3324 104.432 54.3382 105.244 52.8171C105.943 51.5065 104.698 52.4396 104.698 52.4396C104.698 52.4396 102.979 54.6431 102.836 54.4798C102.726 54.3539 103.732 53.2055 104.52 51.7633C104.723 51.3926 104.922 51.026 105.102 50.6874C105.575 49.7993 105.182 49.265 104.544 50.118C104.318 50.4189 103.956 50.9282 103.747 51.3277C103.521 51.7586 103.179 52.0837 102.936 52.4189C102.454 53.0821 102.109 53.5724 102.093 53.5374C102.073 53.4932 101.887 53.558 102.09 53.1578C102.335 52.6766 103.073 51.7656 103.381 51.0309C103.555 50.6147 103.969 49.7654 103.969 49.7654C103.969 49.7654 104.363 48.3689 104.291 48.3209C103.901 48.0568 103.37 48.9403 103.205 49.5352C102.911 49.8649 102.499 50.7691 102.499 50.7691C102.499 50.7691 101.268 52.4204 101.04 52.2528C100.943 52.1819 101.581 51.0801 102.043 49.9044C102.471 48.8131 102.731 47.6439 102.533 47.5305C102.199 47.3386 101.597 48.5021 101.597 48.5021C101.597 48.5021 101.218 49.3385 101.071 49.6074C100.899 49.9226 100.315 50.8278 100.315 50.8278C100.315 50.8278 98.1387 53.8866 97.9367 53.7086C97.7348 53.5306 97.401 52.8596 97.4724 52.6238C97.5435 52.389 97.8957 52.0216 97.9671 51.7857C98.0382 51.5509 97.9343 51.1862 97.6595 51.0818C97.3844 50.9784 96.6137 51.9914 96.6137 51.9914C96.6137 51.9914 95.9953 52.8219 95.8986 53.5301Z" fill="#F8A492"/>
<path d="M61.1329 117.752C61.1329 117.752 75.8281 152.743 76.3716 155.896C76.7688 158.196 76.254 184.373 76.254 184.373L83.2018 184.261L85.6406 154.358L76.4971 116.644L61.1329 117.752Z" fill="#294474"/>
<path d="M54.6773 119.398L61.3732 158.261L56.9966 184.261H64.9099L71.1235 156.302L71.9792 125.663L68.7726 115.803L54.6773 119.398Z" fill="#2E4B7D"/>
<path d="M56.6256 75.5058L55.4754 82.6958C55.4754 82.6958 58.4903 87.7188 60.9034 86.9702C62.9282 86.3422 62.7533 82.3753 62.7533 82.3753C62.7533 82.3753 61.6495 78.272 61.9805 76.2189C62.3116 74.1647 56.6256 75.5058 56.6256 75.5058Z" fill="#F7A491"/>
<path d="M61.9808 76.219C62.3118 74.1658 56.6258 75.5059 56.6258 75.5059L56.5339 76.1072C56.6999 76.5097 56.9035 76.8539 57.1506 77.1179C58.4204 78.4768 60.4056 79.2927 62.1221 79.355C61.9501 78.2474 61.8454 77.0606 61.9808 76.219Z" fill="#F47458"/>
<path d="M53.3617 65.3342C53.2006 65.2758 54.4042 73.5062 56.5436 75.7947C58.683 78.0832 62.851 78.8328 64.3462 77.0299C66.0003 75.0361 65.9173 66.0957 62.5912 63.7409C59.265 61.3861 53.3617 65.3342 53.3617 65.3342Z" fill="#F7A491"/>
<path d="M55.8854 60.6672C54.7184 60.8047 52.6778 62.4207 51.0394 65.1176C49.0245 68.4337 51.5572 72.5064 53.9022 74.3093C56.2471 76.1122 56.1987 78.199 56.1987 78.199L56.586 77.117C56.8598 76.3011 56.9714 75.4357 56.8795 74.5803C56.8242 74.067 56.7135 73.5112 56.5001 73.0552C55.9358 71.8516 55.6443 71.5095 56.1423 70.5076C56.5258 69.7362 54.6492 67.4249 55.253 66.1501L59.9379 65.266C59.9379 65.266 61.9765 65.443 63.2305 64.3423C66.8314 61.1805 61.3312 56.9951 55.8854 60.6672Z" fill="#294474"/>
<path d="M56.5425 71.5292C56.5593 72.5439 56.0949 73.3746 55.506 73.3845C54.917 73.3944 54.4249 72.5795 54.4081 71.5648C54.3913 70.5501 54.8548 69.7193 55.4447 69.7094C56.0336 69.6995 56.5257 70.5145 56.5425 71.5292Z" fill="#F7A491"/>
<path d="M73.8644 75.1491C73.8644 75.1491 75.6006 82.976 76.82 84.1964C76.82 84.1964 70.6114 86.4658 70.8989 88.1104C71.1865 89.7561 77.7786 120.52 77.7786 120.52C77.7786 120.52 64.21 127.595 55.7729 126.453C55.7729 126.453 51.5336 97.7432 49.8893 96.0985L42.1392 97.5608C42.1392 97.5608 42.0506 96.0377 42.1392 92.3822C42.1769 90.8292 43.3266 87.4184 46.0981 85.3502C46.0981 85.3502 51.8064 81.7928 55.431 82.6344C59.2479 84.6815 61.7825 82.313 62.2212 81.3182C62.2212 81.3182 72.5466 75.6679 73.8644 75.1491Z" fill="#F7D646"/>
<path d="M66.3559 126.196C64.1029 125.166 64.0314 125.577 63.7461 125.437C63.4082 125.272 60.7614 120.987 60.7614 120.987C60.7614 120.987 52.8784 108.408 52.4756 107.714L49.9199 96.0497L42.9356 97.4178C42.9356 97.4178 45.3613 107.726 45.6572 108.557C45.954 109.388 58.5515 125.211 59.6175 126.639C59.6175 126.639 60.2742 128.792 60.7312 130.131C61.1883 131.47 62.2106 132.556 62.3961 132.915C62.4231 132.968 63.1109 134.13 64.3317 135.346C65.3835 136.395 64.8514 134.933 64.8514 134.933C64.8514 134.933 63.2397 132.651 63.4375 132.561C63.5902 132.491 64.3985 133.787 65.5509 134.959C65.8469 135.261 66.1408 135.557 66.4122 135.827C67.1255 136.536 67.7509 136.314 67.1188 135.457C66.8954 135.154 66.5134 134.66 66.1917 134.345C65.8441 134.004 65.6321 133.582 65.3829 133.253C64.8873 132.599 64.5185 132.127 64.5563 132.123C64.6045 132.117 64.5964 131.92 64.9199 132.231C65.31 132.604 65.9676 133.575 66.5823 134.08C66.9299 134.367 67.6237 135.009 67.6237 135.009C67.6237 135.009 68.8462 135.79 68.9135 135.735C69.2791 135.438 68.5875 134.674 68.0655 134.344C67.835 133.968 67.0883 133.311 67.0883 133.311C67.0883 133.311 65.8644 131.655 66.0901 131.485C66.1865 131.413 67.0563 132.343 68.047 133.125C68.9673 133.851 70.0118 134.438 70.177 134.282C70.458 134.017 69.5185 133.105 69.5185 133.105C69.5185 133.105 68.8271 132.5 68.6128 132.282C68.3614 132.027 67.6645 131.205 67.6645 131.205C67.6645 131.205 65.3675 128.237 65.5962 128.095C65.8248 127.954 66.5639 127.829 66.7686 127.966C66.9733 128.102 67.2227 128.545 67.4274 128.681C67.6321 128.817 68.0109 128.824 68.1895 128.59C68.369 128.357 67.6216 127.325 67.6216 127.325C67.6216 127.325 67.0064 126.493 66.3559 126.196Z" fill="#F8A492"/>
<path d="M126.518 139.663L115.885 128.492C114.847 127.401 114.847 125.633 115.885 124.542L120.423 119.775V109.76C120.423 108.217 121.612 106.968 123.081 106.968H132.613L137.151 102.2C138.189 101.109 139.871 101.109 140.91 102.2L146.226 107.786C146.724 108.309 147.005 109.018 147.005 109.76V115.346C147.005 116.088 146.724 116.797 146.226 117.32L141.688 122.088V132.102C141.688 133.161 141.12 134.126 140.219 134.601L129.586 140.186C128.566 140.722 127.329 140.515 126.518 139.663Z" fill="#4BEC9F"/>
<path d="M148.047 71.0296L155.725 62.9631C156.475 62.1753 156.475 60.8992 155.725 60.1114L152.448 56.669V49.4374C152.448 48.323 151.59 47.4208 150.529 47.4208H143.646L140.369 43.9783C139.62 43.1906 138.405 43.1906 137.655 43.9783L133.816 48.0116C133.456 48.3897 133.254 48.9018 133.254 49.4374V53.4707C133.254 54.0064 133.456 54.5184 133.816 54.8965L137.093 58.339V65.5705C137.093 66.3346 137.503 67.0315 138.154 67.3745L145.832 71.4077C146.569 71.7948 147.461 71.6451 148.047 71.0296Z" fill="#4BEC9F"/>
<path d="M195.85 129.658L185.067 124.023L180.987 115.388L190.022 110.673C191.013 110.122 191.654 109.081 191.654 107.918V101.794C191.654 100.998 191.363 100.201 190.78 99.6504L179.997 88.2597V78.38L184.951 73.1133C186.117 71.9499 186.117 69.9907 184.951 68.8265L179.122 62.7026C178.598 62.0902 177.84 61.784 177.082 61.784H165.424C164.317 61.784 163.326 62.4578 162.802 63.4992L157.439 74.8277L146.655 80.462C145.665 81.013 145.024 82.0544 145.024 83.2178V95.6698C145.024 96.4656 145.315 97.2622 145.898 97.8132L156.681 109.204V118.879L151.727 124.146C150.794 125.065 150.619 126.474 151.144 127.636L154.874 135.475H147.938C146.831 135.475 145.84 136.149 145.315 137.191L139.486 149.439C139.312 149.867 139.195 150.296 139.195 150.785V163.237C139.195 164.953 140.477 166.299 142.109 166.299H153.767C154.233 166.299 154.641 166.177 155.049 165.993L166.123 160.175H182.911C183.668 160.175 184.427 159.869 184.951 159.257L196.609 146.805C197.192 146.254 197.483 145.457 197.483 144.661V132.413C197.483 131.25 196.842 130.209 195.85 129.658Z" fill="#4BEC9F"/>
<path d="M197.483 132.413V144.661C197.483 145.457 197.191 146.254 196.609 146.805L184.951 159.257C184.427 159.869 183.668 160.175 182.911 160.175H168.339V61.7839H177.082C177.84 61.7839 178.598 62.0901 179.122 62.7025L184.951 68.8265C186.117 69.9899 186.117 71.9498 184.951 73.1132L179.996 78.38V88.2596L190.78 99.6503C191.363 100.201 191.654 100.998 191.654 101.794V107.918C191.654 109.081 191.013 110.122 190.022 110.673L180.987 115.388L185.067 124.023L195.85 129.658C196.842 130.209 197.483 131.25 197.483 132.413Z" fill="#63FFB4"/>
<path d="M128.959 87.4039C131.156 87.4039 132.937 85.6229 132.937 83.4259C132.937 81.2288 131.156 79.4478 128.959 79.4478C126.762 79.4478 124.98 81.2288 124.98 83.4259C124.98 85.6229 126.762 87.4039 128.959 87.4039Z" fill="url(#paint3_linear)"/>
<path d="M152.159 31.9662C152.159 40.723 138.97 63.0628 132.1 74.0823C131.567 74.9372 130.418 75.4567 128.292 75.4567C127.284 75.4567 127.68 74.9351 127.147 74.0802C120.277 63.06 107.089 40.7224 107.089 31.9669C107.089 20.5492 117.178 11.2926 129.624 11.2926C142.07 11.2919 152.159 20.5478 152.159 31.9662Z" fill="url(#paint4_linear)"/>
<path d="M150.826 31.9662C150.826 40.723 137.637 63.0628 130.767 74.0823C130.234 74.9372 129.297 75.4573 128.289 75.4567C127.282 75.456 126.347 74.9351 125.814 74.0802C118.944 63.06 105.756 40.7224 105.756 31.9669C105.756 20.5492 115.845 11.2926 128.291 11.2926C140.737 11.2919 150.826 20.5478 150.826 31.9662Z" fill="url(#paint5_linear)"/>
<path opacity="0.36" d="M138.566 42.6427C143.937 37.2715 143.937 28.5631 138.566 23.1919C133.195 17.8207 124.486 17.8207 119.115 23.1919C113.744 28.5631 113.744 37.2715 119.115 42.6427C124.486 48.0139 133.195 48.0139 138.566 42.6427Z" fill="white"/>
<path d="M128.292 50.3607C119.074 50.3607 111.575 42.8616 111.575 33.6439C111.575 33.4783 111.709 33.3446 111.874 33.3446C112.039 33.3446 112.174 33.4789 112.174 33.6439C112.174 42.5317 119.404 49.7621 128.291 49.7621C137.179 49.7621 144.409 42.5317 144.409 33.6439C144.409 24.7562 137.179 17.5257 128.291 17.5257C123.152 17.5257 118.44 19.8913 115.363 24.0158C115.264 24.1487 115.076 24.176 114.944 24.0772C114.811 23.9783 114.784 23.7908 114.883 23.6579C118.074 19.38 122.961 16.9265 128.291 16.9265C137.509 16.9265 145.008 24.4255 145.008 33.6432C145.009 42.861 137.509 50.3607 128.292 50.3607Z" fill="white"/>
<path d="M137.045 34.016C136.634 34.3233 136.337 34.5453 135.663 34.5453C135.357 34.5453 135.129 34.499 134.932 34.4201C134.509 31.2958 133.461 28.8212 131.816 27.0614C130.163 25.2938 127.941 24.344 125.391 24.3147L124.557 24.3051L124.802 25.1517C125.838 28.7354 125.48 31.5193 123.71 33.6569C123.513 33.7728 123.343 33.8992 123.187 34.016C122.776 34.3233 122.479 34.5453 121.805 34.5453C121.132 34.5453 120.835 34.3233 120.423 34.016C119.967 33.6752 119.4 33.2512 118.341 33.2512V34.5453C119.014 34.5453 119.311 34.7673 119.723 35.0746C120.179 35.4154 120.746 35.8394 121.805 35.8394C122.864 35.8394 123.432 35.4154 123.888 35.0746C124.299 34.7673 124.596 34.5453 125.27 34.5453C125.943 34.5453 126.24 34.7673 126.652 35.0747C127.108 35.4154 127.675 35.8394 128.734 35.8394C129.793 35.8394 130.361 35.4154 130.817 35.0747C131.228 34.7673 131.525 34.5453 132.199 34.5453C132.872 34.5453 133.169 34.7673 133.581 35.0747C134.037 35.4154 134.604 35.8394 135.663 35.8394C136.722 35.8394 137.29 35.4154 137.746 35.0747C138.157 34.7673 138.455 34.5453 139.128 34.5453V33.2512C138.069 33.2512 137.501 33.6752 137.045 34.016Z" fill="#EA4242"/>
<path d="M135.664 37.6221C134.99 37.6221 134.693 37.4 134.281 37.0927C133.825 36.752 133.258 36.3279 132.199 36.3279C131.14 36.3279 130.572 36.752 130.116 37.0927C129.705 37.4 129.408 37.6221 128.734 37.6221C128.061 37.6221 127.764 37.4 127.352 37.0928C126.896 36.752 126.329 36.3279 125.27 36.3279C124.211 36.3279 123.644 36.752 123.187 37.0927C122.776 37.4 122.479 37.6221 121.806 37.6221C121.132 37.6221 120.835 37.4 120.424 37.0927C119.967 36.752 119.4 36.3279 118.341 36.3279V37.6221C119.014 37.6221 119.312 37.8441 119.723 38.1514C120.179 38.4921 120.747 38.9162 121.806 38.9162C122.864 38.9162 123.432 38.4921 123.888 38.1514C124.299 37.8441 124.597 37.6221 125.27 37.6221C125.943 37.6221 126.241 37.8441 126.652 38.1514C127.108 38.4921 127.676 38.9162 128.734 38.9162C129.793 38.9162 130.361 38.4921 130.817 38.1514C131.228 37.8441 131.525 37.6221 132.199 37.6221C132.872 37.6221 133.17 37.8441 133.581 38.1514C134.037 38.4921 134.605 38.9162 135.664 38.9162C136.722 38.9162 137.29 38.4921 137.746 38.1514C138.158 37.8441 138.455 37.6221 139.128 37.6221V36.3279C138.069 36.3279 137.502 36.752 137.046 37.0927C136.634 37.4 136.337 37.6221 135.664 37.6221Z" fill="#EA4242"/>
<defs>
<linearGradient id="paint0_linear" x1="123.611" y1="107.756" x2="-46.9897" y2="109.065" gradientUnits="userSpaceOnUse">
<stop stop-color="#53D8FF"/>
<stop offset="1" stop-color="#3840F7"/>
</linearGradient>
<linearGradient id="paint1_linear" x1="56.4169" y1="112.595" x2="269.933" y2="101.541" gradientUnits="userSpaceOnUse">
<stop stop-color="#53D8FF"/>
<stop offset="1" stop-color="#3840F7"/>
</linearGradient>
<linearGradient id="paint2_linear" x1="165.824" y1="109.503" x2="386.165" y2="109.503" gradientUnits="userSpaceOnUse">
<stop stop-color="#53D8FF"/>
<stop offset="1" stop-color="#3840F7"/>
</linearGradient>
<linearGradient id="paint3_linear" x1="118.827" y1="98.0267" x2="169.839" y2="24.5085" gradientUnits="userSpaceOnUse">
<stop stop-color="#FDF53F"/>
<stop offset="1" stop-color="#D93C65"/>
</linearGradient>
<linearGradient id="paint4_linear" x1="86.733" y1="72.5213" x2="147.564" y2="27.4613" gradientUnits="userSpaceOnUse">
<stop stop-color="#FDF53F"/>
<stop offset="1" stop-color="#D93C65"/>
</linearGradient>
<linearGradient id="paint5_linear" x1="110.362" y1="66.017" x2="175.488" y2="-54.7274" gradientUnits="userSpaceOnUse">
<stop stop-color="#FDF53F"/>
<stop offset="1" stop-color="#D93C65"/>
</linearGradient>
</defs>
</svg>
