<svg width="23" height="23" viewBox="0 0 23 23" fill="none" xmlns="http://www.w3.org/2000/svg">
<path d="M22.7189 21.3641L16.1784 14.8235C17.4453 13.2586 18.2081 11.27 18.2081 9.10418C18.2081 4.08443 14.1237 0 9.10404 0C4.08434 0 0 4.08439 0 9.10414C0 14.1239 4.08439 18.2083 9.10408 18.2083C11.2699 18.2083 13.2584 17.4455 14.8233 16.1786L21.3639 22.7192C21.5508 22.9061 21.7961 23 22.0414 23C22.2868 23 22.5321 22.9061 22.719 22.7192C23.0937 22.3445 23.0937 21.7388 22.7189 21.3641ZM9.10408 16.2916C5.14044 16.2916 1.91666 13.0678 1.91666 9.10414C1.91666 5.14046 5.14044 1.91664 9.10408 1.91664C13.0677 1.91664 16.2915 5.14046 16.2915 9.10414C16.2915 13.0678 13.0677 16.2916 9.10408 16.2916Z" fill="white"/>
</svg>
