<svg width="27" height="20" viewBox="0 0 27 20" fill="none" xmlns="http://www.w3.org/2000/svg">
<path d="M23.8687 13.0492C23.3438 13.4388 22.9645 13.7203 22.1051 13.7203C21.7143 13.7203 21.4232 13.6616 21.1721 13.5615C20.6319 9.60067 19.2952 6.46352 17.1953 4.2326C15.0859 1.99166 12.2507 0.787555 8.99631 0.750422L7.93282 0.738281L8.24502 1.81152C9.56672 6.35474 9.11055 9.88406 6.85213 12.594C6.59992 12.7409 6.38378 12.9012 6.18441 13.0492C5.65953 13.4388 5.28034 13.7203 4.42093 13.7203C3.56152 13.7203 3.18233 13.4388 2.65745 13.0492C2.07543 12.6172 1.35108 12.0797 0 12.0797V13.7203C0.859359 13.7203 1.23855 14.0018 1.76343 14.3913C2.34545 14.8233 3.0698 15.3609 4.42093 15.3609C5.77206 15.3609 6.49641 14.8233 7.07843 14.3913C7.60331 14.0018 7.9825 13.7203 8.84186 13.7203C9.70122 13.7203 10.0805 14.0018 10.6053 14.3913C11.1874 14.8233 11.9117 15.3609 13.2628 15.3609C14.6139 15.3609 15.3383 14.8233 15.9203 14.3913C16.4452 14.0018 16.8244 13.7203 17.6838 13.7203C18.5433 13.7203 18.9225 14.0018 19.4475 14.3913C20.0295 14.8233 20.7539 15.3609 22.1051 15.3609C23.4562 15.3609 24.1806 14.8233 24.7626 14.3913C25.2876 14.0018 25.6669 13.7203 26.5263 13.7203V12.0797C25.1751 12.0797 24.4507 12.6172 23.8687 13.0492ZM15.0263 13.0492C14.5014 13.4388 14.1222 13.7203 13.2628 13.7203C12.4034 13.7203 12.0242 13.4388 11.4994 13.0493C10.9588 12.6481 10.2953 12.1561 9.12137 12.0879C9.79681 10.894 10.2323 9.57967 10.421 8.15987C10.65 6.43601 10.5171 4.51927 10.0266 2.44918C14.8913 2.94219 18.2292 6.50989 19.4094 12.4532C18.9675 12.2387 18.4184 12.0797 17.6839 12.0797C16.3327 12.0797 15.6084 12.6172 15.0263 13.0492Z" fill="white"/>
<path d="M22.1051 17.621C21.2456 17.621 20.8663 17.3395 20.3414 16.9499C19.7594 16.5179 19.035 15.9803 17.6838 15.9803C16.3327 15.9803 15.6083 16.518 15.0263 16.9499C14.5014 17.3395 14.1222 17.621 13.2628 17.621C12.4034 17.621 12.0242 17.3395 11.4994 16.95C10.9173 16.518 10.193 15.9803 8.84186 15.9803C7.49078 15.9803 6.76644 16.518 6.18441 16.9499C5.65953 17.3395 5.28034 17.621 4.42093 17.621C3.56152 17.621 3.18233 17.3395 2.65745 16.9499C2.07542 16.5179 1.35108 15.9803 0 15.9803V17.621C0.859359 17.621 1.23855 17.9024 1.76343 18.292C2.34545 18.724 3.0698 19.2616 4.42093 19.2616C5.77206 19.2616 6.49641 18.724 7.07843 18.292C7.60331 17.9024 7.9825 17.621 8.84186 17.621C9.70122 17.621 10.0805 17.9024 10.6053 18.292C11.1874 18.724 11.9117 19.2616 13.2628 19.2616C14.6139 19.2616 15.3383 18.724 15.9203 18.292C16.4452 17.9024 16.8244 17.621 17.6838 17.621C18.5433 17.621 18.9225 17.9024 19.4475 18.292C20.0295 18.724 20.7539 19.2616 22.1051 19.2616C23.4562 19.2616 24.1806 18.724 24.7626 18.292C25.2876 17.9024 25.6669 17.621 26.5263 17.621V15.9803C25.1751 15.9803 24.4507 16.518 23.8687 16.9499C23.3438 17.3395 22.9645 17.621 22.1051 17.621Z" fill="white"/>
</svg>
