<svg width="25" height="17" viewBox="0 0 25 17" fill="none" xmlns="http://www.w3.org/2000/svg">
<path d="M22.227 11.1385C21.7522 11.4909 21.409 11.7456 20.6314 11.7456C20.2778 11.7456 20.0145 11.6925 19.7873 11.602C19.2985 8.01835 18.0892 5.17998 16.1892 3.16152C14.2807 1.13401 11.7156 0.0445808 8.77111 0.0109844L7.8089 0L8.09137 0.971029C9.2872 5.08156 8.87447 8.27475 6.83114 10.7266C6.60295 10.8595 6.40739 11.0046 6.22701 11.1385C5.75212 11.4909 5.40904 11.7456 4.63148 11.7456C3.85392 11.7456 3.51084 11.4909 3.03595 11.1385C2.50936 10.7476 1.854 10.2612 0.631592 10.2612V11.7456C1.40911 11.7456 1.75219 12.0003 2.22708 12.3527C2.75367 12.7436 3.40903 13.23 4.63148 13.23C5.85394 13.23 6.50929 12.7436 7.03589 12.3527C7.51078 12.0003 7.85386 11.7456 8.63137 11.7456C9.40889 11.7456 9.75201 12.0003 10.2269 12.3528C10.7535 12.7436 11.4089 13.23 12.6313 13.23C13.8537 13.23 14.5091 12.7436 15.0357 12.3528C15.5106 12.0003 15.8537 11.7456 16.6312 11.7456C17.4089 11.7456 17.752 12.0003 18.2269 12.3528C18.7535 12.7436 19.4089 13.23 20.6314 13.23C21.8539 13.23 22.5093 12.7436 23.0359 12.3528C23.5109 12.0003 23.854 11.7456 24.6316 11.7456V10.2612C23.4091 10.2612 22.7537 10.7476 22.227 11.1385ZM14.2268 11.1385C13.7519 11.4909 13.4088 11.7456 12.6313 11.7456C11.8537 11.7456 11.5107 11.4909 11.0358 11.1385C10.5467 10.7755 9.9464 10.3304 8.88426 10.2687C9.49537 9.18853 9.8894 7.99935 10.0601 6.71477C10.2673 5.15509 10.1471 3.42089 9.70331 1.54796C14.1046 1.99401 17.1247 5.22194 18.1925 10.5992C17.7927 10.4052 17.2959 10.2613 16.6313 10.2613C15.4088 10.2612 14.7534 10.7476 14.2268 11.1385Z" fill="#0075DF"/>
<path d="M20.6314 15.2749C19.8538 15.2749 19.5106 15.0202 19.0357 14.6677C18.5091 14.2769 17.8537 13.7905 16.6312 13.7905C15.4088 13.7905 14.7534 14.277 14.2268 14.6677C13.7519 15.0202 13.4088 15.2749 12.6313 15.2749C11.8537 15.2749 11.5107 15.0202 11.0358 14.6678C10.5092 14.277 9.85383 13.7905 8.63137 13.7905C7.40897 13.7905 6.75361 14.277 6.22701 14.6677C5.75212 15.0202 5.40904 15.2749 4.63148 15.2749C3.85392 15.2749 3.51084 15.0202 3.03595 14.6677C2.50936 14.2769 1.854 13.7905 0.631592 13.7905V15.2749C1.40911 15.2749 1.75219 15.5296 2.22708 15.882C2.75367 16.2728 3.40903 16.7593 4.63148 16.7593C5.85394 16.7593 6.50929 16.2728 7.03589 15.882C7.51078 15.5296 7.85386 15.2749 8.63137 15.2749C9.40889 15.2749 9.75201 15.5296 10.2269 15.8821C10.7535 16.2729 11.4089 16.7593 12.6313 16.7593C13.8537 16.7593 14.5091 16.2728 15.0357 15.8821C15.5106 15.5296 15.8537 15.2749 16.6312 15.2749C17.4089 15.2749 17.752 15.5296 18.2269 15.8821C18.7535 16.2729 19.4089 16.7593 20.6314 16.7593C21.8539 16.7593 22.5093 16.2728 23.0359 15.8821C23.5109 15.5296 23.854 15.2749 24.6316 15.2749V13.7905C23.4091 13.7905 22.7537 14.277 22.227 14.6677C21.7522 15.0202 21.409 15.2749 20.6314 15.2749Z" fill="#0075DF"/>
</svg>
