<svg width="43" height="31" viewBox="0 0 43 31" fill="none" xmlns="http://www.w3.org/2000/svg">
<path d="M38.1096 20.4007C37.2716 21.0268 36.6661 21.4792 35.2938 21.4792C34.6699 21.4792 34.2051 21.3849 33.8043 21.224C32.9417 14.8584 30.8075 9.81651 27.4546 6.2311C24.0867 2.6296 19.5599 0.694424 14.3639 0.634746L12.6658 0.615234L13.1643 2.34009C15.2746 9.6417 14.5463 15.3138 10.9404 19.6691C10.5377 19.9051 10.1926 20.1628 9.87427 20.4007C9.03623 21.0268 8.4308 21.4792 7.05863 21.4792C5.68646 21.4792 5.08103 21.0268 4.24299 20.4007C3.3137 19.7064 2.15719 18.8424 0 18.8424V21.4792C1.37209 21.4792 1.97752 21.9315 2.81556 22.5576C3.74484 23.2518 4.90136 24.1159 7.05863 24.1159C9.2159 24.1159 10.3724 23.2518 11.3017 22.5576C12.1397 21.9315 12.7452 21.4792 14.1173 21.4792C15.4893 21.4792 16.0949 21.9315 16.9329 22.5577C17.8622 23.2519 19.0187 24.1159 21.1759 24.1159C23.3331 24.1159 24.4897 23.2518 25.419 22.5577C26.257 21.9315 26.8625 21.4792 28.2347 21.4792C29.6069 21.4792 30.2125 21.9315 31.0506 22.5577C31.9799 23.2519 33.1365 24.1159 35.2938 24.1159C37.4511 24.1159 38.6077 23.2518 39.537 22.5577C40.3752 21.9315 40.9807 21.4792 42.3529 21.4792V18.8424C40.1956 18.8424 39.039 19.7064 38.1096 20.4007Z" fill="#EA4242"/>
<path d="M35.2938 27.7481C33.9216 27.7481 33.316 27.2958 32.4778 26.6696C31.5486 25.9754 30.392 25.1114 28.2347 25.1114C26.0774 25.1114 24.9208 25.9755 23.9915 26.6696C23.1535 27.2958 22.548 27.7481 21.1759 27.7481C19.8038 27.7481 19.1984 27.2958 18.3603 26.6697C17.431 25.9755 16.2745 25.1114 14.1173 25.1114C11.9601 25.1114 10.8036 25.9755 9.87427 26.6696C9.03623 27.2958 8.4308 27.7481 7.05863 27.7481C5.68646 27.7481 5.08103 27.2958 4.24299 26.6696C3.3137 25.9754 2.15719 25.1114 0 25.1114V27.7481C1.37209 27.7481 1.97752 28.2005 2.81556 28.8266C3.74484 29.5208 4.90136 30.3848 7.05863 30.3848C9.2159 30.3848 10.3724 29.5208 11.3017 28.8266C12.1397 28.2005 12.7452 27.7481 14.1173 27.7481C15.4893 27.7481 16.0949 28.2005 16.9329 28.8266C17.8622 29.5209 19.0187 30.3848 21.1759 30.3848C23.3331 30.3848 24.4897 29.5208 25.419 28.8266C26.257 28.2005 26.8625 27.7481 28.2347 27.7481C29.6069 27.7481 30.2125 28.2005 31.0506 28.8266C31.9799 29.5209 33.1365 30.3848 35.2938 30.3848C37.4511 30.3848 38.6077 29.5208 39.537 28.8266C40.3752 28.2005 40.9807 27.7481 42.3529 27.7481V25.1114C40.1956 25.1114 39.039 25.9755 38.1096 26.6696C37.2716 27.2958 36.6661 27.7481 35.2938 27.7481Z" fill="#EA4242"/>
</svg>
