<svg width="24" height="25" viewBox="0 0 24 25" fill="none" xmlns="http://www.w3.org/2000/svg">
<path d="M15.22 10.5801C15.04 10.5801 14.87 10.5101 14.75 10.3801C14.37 10.0001 14.16 9.50009 14.16 8.96009C14.16 8.42009 14.37 7.92009 14.75 7.54009C14.88 7.41009 15.04 7.34009 15.22 7.34009C15.4 7.34009 15.57 7.41009 15.69 7.54009C15.82 7.67009 15.89 7.83009 15.89 8.01009C15.89 8.19009 15.82 8.36009 15.69 8.48009C15.56 8.61009 15.49 8.78009 15.49 8.95009C15.49 9.13009 15.56 9.30009 15.69 9.42009C15.82 9.55009 15.89 9.71009 15.89 9.89009C15.89 10.0701 15.82 10.2401 15.69 10.3601C15.56 10.5101 15.39 10.5801 15.22 10.5801Z" fill="#0075DF"/>
<path d="M12.9901 10.5801C12.8101 10.5801 12.6401 10.5101 12.5201 10.3801C12.1401 10.0001 11.9301 9.50009 11.9301 8.96009C11.9301 8.42009 12.1401 7.92009 12.5201 7.54009C12.6501 7.41009 12.8101 7.34009 12.9901 7.34009C13.1701 7.34009 13.3401 7.41009 13.4601 7.54009C13.7201 7.80009 13.7201 8.22009 13.4601 8.49009C13.3301 8.62009 13.2601 8.79009 13.2601 8.97009C13.2601 9.15009 13.3301 9.32009 13.4601 9.44009C13.7201 9.70009 13.7201 10.1301 13.4601 10.3901C13.3401 10.5101 13.1701 10.5801 12.9901 10.5801Z" fill="#0075DF"/>
<path d="M18.7399 9.10001C18.5599 9.10001 18.3899 9.03001 18.2699 8.90001C18.1499 8.78001 18.0699 8.60001 18.0699 8.43001C18.0699 8.26001 18.1399 8.08001 18.2699 7.96001C18.3999 7.84001 18.5699 7.76001 18.7399 7.76001C18.9099 7.76001 19.0899 7.83001 19.2099 7.96001C19.3299 8.08001 19.4099 8.26001 19.4099 8.43001C19.4099 8.61001 19.3399 8.78001 19.2099 8.90001C19.0899 9.03001 18.9199 9.10001 18.7399 9.10001Z" fill="#0075DF"/>
<path d="M8.83 24.4C8.73 24.4 8.63 24.38 8.53 24.34C6.86 23.69 5.63 22.21 5.32 20.45C2.18 19.23 0.05 16.17 0 12.81C0.02 10.82 0.78 8.91 2.14 7.43C2.27 7.29 2.45 7.21 2.63 7.21C2.8 7.21 2.96 7.27 3.08 7.38C3.35 7.63 3.37 8.05 3.12 8.33C1.98 9.57 1.35 11.16 1.33 12.8C1.37 15.42 2.9 17.82 5.26 18.97C5.27 18.85 5.29 18.73 5.31 18.6C5.32 18.52 5.35 18.44 5.4 18.37C5.46 18.28 5.52 18.18 5.58 18.09C5.07 17.89 4.6 17.58 4.22 17.17C3.54 16.44 3.19 15.48 3.24 14.48C3.28 13.58 3.66 12.73 4.3 12.08C4.94 11.43 5.79 11.05 6.69 11C6.78 11 6.86 11 6.93 11C7.32 11 7.7 11.06 8.07 11.18C9.14 11.51 10.25 11.74 11.37 11.85C11.46 11.57 11.71 11.38 12.01 11.38C12.38 11.38 12.68 11.68 12.68 12.05C12.68 12.54 12.55 13.02 12.3 13.43C13.47 13.12 14.52 12.47 15.26 11.62C15.39 11.47 15.57 11.39 15.77 11.39C15.93 11.39 16.08 11.45 16.2 11.55C16.22 11.57 16.25 11.59 16.27 11.62C17.04 11.47 17.8 11.26 18.53 11C18.36 10.96 18.19 10.93 18.01 10.93H17.55C17.18 10.93 16.88 10.63 16.88 10.26C16.88 9.89 17.18 9.59 17.55 9.59H18.01C18.78 9.59 19.52 9.85 20.12 10.33C20.64 10.08 21.15 9.8 21.64 9.5C21.69 9.47 21.72 9.42 21.72 9.37C21.72 9.33 21.72 9.28 21.68 9.23C19.08 6.53 15.58 5.04 11.83 5.04C9.94 5.04 8.11 5.42 6.39 6.17C6.3 6.2 6.21 6.22 6.12 6.22C5.85 6.22 5.61 6.06 5.51 5.82C5.44 5.65 5.43 5.47 5.5 5.3C5.57 5.13 5.69 5 5.86 4.93C6.29 4.74 6.75 4.57 7.2 4.42C7.61 3.25 7.72 1.99 7.54 0.77C7.51 0.53 7.6 0.3 7.79 0.15C7.9 0.05 8.05 0 8.2 0C8.28 0 8.36 0.02 8.44 0.05C10.26 0.76 11.82 2.06 12.84 3.74C14.56 3.85 16.23 4.26 17.81 4.94C19.63 5.73 21.26 6.86 22.65 8.3C22.97 8.63 23.12 9.08 23.06 9.53C23 9.99 22.74 10.39 22.35 10.63C20.31 11.88 18.08 12.7 15.72 13.06C14.39 14.28 12.58 14.98 10.73 14.98C10.31 14.98 9.95 14.68 9.88 14.26C9.81 13.84 10.05 13.44 10.45 13.31C10.57 13.27 10.68 13.21 10.79 13.14C9.73 13.01 8.69 12.78 7.67 12.47C7.43 12.39 7.18 12.35 6.93 12.35H6.79C5.62 12.42 4.65 13.39 4.59 14.57C4.56 15.21 4.78 15.82 5.21 16.28C5.6 16.68 6.11 16.93 6.66 17C7.55 16.32 8.66 15.94 9.79 15.94C10.43 15.94 11.05 16.06 11.65 16.29C11.96 16.41 12.16 16.7 12.17 17.03C12.18 17.36 11.99 17.66 11.69 17.79C10.74 18.21 9.89 19.01 9.3 20.04C9.07 21.14 9.16 22.31 9.58 23.26C9.71 23.56 9.65 23.91 9.42 24.15C9.26 24.31 9.05 24.4 8.83 24.4ZM9.79 17.28C8.49 17.28 7.3 17.93 6.6 19.01C6.41 20.29 6.92 21.62 7.95 22.47C7.78 21.56 7.81 20.58 8.03 19.62C8.04 19.56 8.07 19.49 8.1 19.44C8.59 18.58 9.22 17.84 9.96 17.28C9.9 17.28 9.85 17.28 9.79 17.28ZM8.96 1.77C8.97 2.53 8.89 3.28 8.71 4.02C9.52 3.85 10.36 3.75 11.2 3.71C10.59 2.92 9.83 2.26 8.96 1.77Z" fill="#0075DF"/>
<path d="M4.24996 7.20011C4.07996 7.20011 3.89996 7.13011 3.77996 7.00011C3.65996 6.87011 3.57996 6.70011 3.57996 6.53011C3.57996 6.36011 3.64996 6.18011 3.77996 6.06011C3.89996 5.94011 4.07996 5.86011 4.24996 5.86011C4.41996 5.86011 4.59996 5.93011 4.71996 6.06011C4.83996 6.19011 4.91996 6.36011 4.91996 6.53011C4.91996 6.71011 4.84996 6.88011 4.71996 7.00011C4.59996 7.13011 4.42996 7.20011 4.24996 7.20011Z" fill="#0075DF"/>
</svg>
