<svg width="26" height="21" viewBox="0 0 26 21" fill="none" xmlns="http://www.w3.org/2000/svg">
<path d="M19.47 10.5C19.13 10.5 18.45 10.38 17.75 9.56005C17.33 9.08005 16.88 8.84005 16.43 8.84005C15.75 8.84005 15.19 9.39005 15.04 9.55005C15.01 9.59005 14.29 10.47 13.26 10.49C12.76 10.49 12.13 10.33 11.45 9.55005C11.04 9.06005 10.61 8.83005 10.13 8.83005C9.34003 8.83005 8.74003 9.54005 8.74003 9.55005C8.71003 9.59005 7.99003 10.46 6.96003 10.49C6.95003 10.49 6.95003 10.49 6.94003 10.49C6.50003 10.49 5.84003 10.36 5.14003 9.55005C4.73003 9.07005 4.30003 8.84005 3.83003 8.84005C3.15003 8.84005 2.59003 9.39005 2.44003 9.55005C2.27003 9.74005 2.03003 9.85005 1.78003 9.85005C1.65003 9.85005 1.52003 9.82005 1.43003 9.76005C1.08003 9.44005 1.05003 8.97005 1.31003 8.65005C1.35003 8.60005 2.34003 7.38005 3.86003 7.38005C4.80003 7.38005 5.64003 7.80005 6.35003 8.62005C6.66003 8.99005 6.82003 9.04005 6.89003 9.04005C7.19003 9.02005 7.48003 8.73005 7.58003 8.63005C7.58003 8.63005 8.57003 7.35005 10.14 7.35005C11.08 7.35005 11.92 7.77005 12.63 8.59005C12.94 8.96005 13.1 9.01005 13.17 9.01005C13.48 8.99005 13.76 8.70005 13.86 8.60005C14.03 8.40005 15.01 7.32005 16.42 7.32005C17.36 7.32005 18.2 7.74005 18.91 8.56005C19.28 8.96005 19.45 8.98005 19.48 8.98005C19.78 8.96005 20.07 8.67005 20.16 8.58005C20.28 8.39005 21.3 7.30005 22.72 7.30005C23.65 7.30005 24.51 7.73005 25.21 8.54005C25.35 8.70005 25.42 8.90005 25.4 9.10005C25.39 9.30005 25.29 9.49005 25.13 9.63005C24.99 9.76005 24.8 9.83005 24.62 9.83005C24.4 9.83005 24.19 9.73005 24.03 9.56005C23.63 9.08005 23.19 8.84005 22.74 8.84005C21.95 8.84005 21.35 9.55005 21.35 9.56005C21.32 9.60005 20.6 10.47 19.57 10.5H19.47Z" fill="#0075DF"/>
<path d="M19.3899 15.6001C19.0499 15.6001 18.3699 15.4801 17.6699 14.6601C17.2399 14.1801 16.7999 13.9401 16.3499 13.9401C15.5799 13.9401 14.9599 14.6501 14.9499 14.6601C14.9199 14.6901 14.2099 15.5701 13.1699 15.6001C12.6699 15.6001 12.0399 15.4401 11.3599 14.6601C10.9499 14.1701 10.5199 13.9401 10.0399 13.9401C9.24994 13.9401 8.64994 14.6501 8.63994 14.6601C8.60994 14.7001 7.88995 15.5701 6.85994 15.6001C6.84994 15.6001 6.84995 15.6001 6.83994 15.6001C6.39994 15.6001 5.73994 15.4701 5.03994 14.6601C4.62994 14.1801 4.19994 13.9401 3.71994 13.9401C2.94994 13.9401 2.32994 14.6501 2.31994 14.6601C2.15995 14.8201 1.94994 14.9101 1.72994 14.9101C1.54994 14.9101 1.36994 14.8501 1.22994 14.7401C0.919945 14.4301 0.889945 13.9701 1.13994 13.6401C1.17994 13.5901 2.17994 12.3701 3.68994 12.3701C4.62995 12.3701 5.46994 12.7901 6.17994 13.6101C6.42994 13.8901 6.63994 14.0301 6.78994 14.0301C7.04994 14.0101 7.33994 13.7201 7.43994 13.6301C7.55994 13.4401 8.57994 12.3501 9.99994 12.3501C10.9399 12.3501 11.7799 12.7701 12.4899 13.5901C12.7699 13.9201 12.9899 14.0101 13.0699 14.0101C13.2699 14.0001 13.4899 13.8601 13.7399 13.6101C13.9099 13.4101 14.8799 12.3301 16.2999 12.3301C17.2399 12.3301 18.0799 12.7501 18.7899 13.5701C19.0699 13.8801 19.2999 13.9901 19.3999 13.9901C19.6599 13.9701 19.9499 13.6801 20.0499 13.5901C20.0499 13.5901 21.0499 12.3101 22.6099 12.3101C23.5899 12.3101 24.4399 12.7801 25.1099 13.6701C25.2399 13.8201 25.3099 14.0201 25.2999 14.2201C25.2899 14.4201 25.1899 14.6101 25.0299 14.7501C24.8899 14.8801 24.6999 14.9501 24.5199 14.9501C24.2999 14.9501 24.0899 14.8501 23.9299 14.6801C23.5299 14.2001 23.0899 13.9601 22.6399 13.9601C21.8499 13.9601 21.2499 14.6701 21.2499 14.6801C21.2199 14.7201 20.4999 15.5901 19.4699 15.6201L19.3899 15.6001Z" fill="#0075DF"/>
<path d="M19.3601 20.6101C19.0201 20.6101 18.3401 20.4901 17.6401 19.6701C17.2101 19.1901 16.7701 18.9501 16.3201 18.9501C15.5501 18.9501 14.9301 19.6601 14.9201 19.6701C14.8901 19.7001 14.1801 20.5801 13.1401 20.6101C12.6701 20.6101 12.0401 20.4501 11.3501 19.6701C10.9401 19.1801 10.5101 18.9501 10.0301 18.9501C9.24006 18.9501 8.64006 19.6601 8.63006 19.6701C8.60006 19.7101 7.88006 20.5801 6.85006 20.6101C6.84006 20.6101 6.84006 20.6101 6.83006 20.6101C6.39006 20.6101 5.73006 20.4801 5.03006 19.6701C4.62006 19.1901 4.19006 18.9501 3.71006 18.9501C2.94006 18.9501 2.32006 19.6601 2.31006 19.6701C2.15006 19.8301 1.93006 19.9201 1.72006 19.9201C1.54006 19.9201 1.36006 19.8601 1.22006 19.7501C0.910057 19.4401 0.880057 18.9801 1.13006 18.6501C1.17006 18.6001 2.17006 17.3801 3.68006 17.3801C4.62006 17.3801 5.46006 17.8001 6.17006 18.6201C6.42006 18.9001 6.63006 19.0401 6.78006 19.0401C7.04006 19.0201 7.33006 18.7301 7.43006 18.6401C7.43006 18.6401 8.42006 17.3601 9.99006 17.3601C10.9301 17.3601 11.7701 17.7801 12.4801 18.6001C12.7301 18.8801 12.9401 19.0201 13.0901 19.0201C13.2601 19.0101 13.4801 18.8701 13.7401 18.6201C13.9101 18.4201 14.8801 17.3401 16.3001 17.3401C17.2401 17.3401 18.0801 17.7601 18.7901 18.5801C19.0401 18.8601 19.2501 19.0001 19.4001 19.0001C19.5701 18.9901 19.7901 18.8501 20.0501 18.6001C20.0501 18.6001 21.0501 17.3201 22.6101 17.3201C23.6201 17.3201 24.4201 17.7801 25.0801 18.6801C25.3501 18.9901 25.3201 19.4701 25.0001 19.7601C24.8601 19.8901 24.6701 19.9601 24.4901 19.9601C24.2701 19.9601 24.0601 19.8601 23.9101 19.6901C23.5101 19.2101 23.0701 18.9701 22.6201 18.9701C21.8301 18.9701 21.2301 19.6801 21.2301 19.6901C21.2001 19.7301 20.4801 20.6001 19.4501 20.6301L19.3601 20.6101Z" fill="#0075DF"/>
<path d="M3.51997 3.44002C2.84997 3.44002 2.33997 3.14002 2.33997 2.73002C2.33997 2.32002 2.84997 2.02002 3.51997 2.02002H23.11C23.78 2.02002 24.29 2.32002 24.29 2.73002C24.29 3.14002 23.78 3.44002 23.11 3.44002H3.51997Z" fill="#0075DF"/>
<path d="M4.26003 5.47C4.08003 5.47 3.90003 5.4 3.76003 5.27L1.73003 3.23C1.60003 3.1 1.53003 2.92 1.53003 2.73C1.53003 2.54 1.60003 2.36 1.74003 2.23L3.77003 0.2C3.89003 0.07 4.07003 0 4.26003 0C4.45003 0 4.63003 0.07 4.76003 0.21C4.89003 0.34 4.97003 0.52 4.97003 0.71C4.97003 0.9 4.89003 1.07 4.76003 1.2L3.23003 2.73L4.76003 4.26C4.90003 4.4 4.97003 4.57 4.97003 4.76C4.97003 4.95 4.90003 5.13 4.76003 5.26C4.62003 5.4 4.45003 5.47 4.26003 5.47Z" fill="#0075DF"/>
<path d="M22.1401 5.47C21.9501 5.47 21.7701 5.39 21.6401 5.26C21.5101 5.13 21.4401 4.95 21.4401 4.76C21.4401 4.57 21.5101 4.39 21.6501 4.26L23.1801 2.73L21.6401 1.2C21.5101 1.07 21.4301 0.89 21.4301 0.7C21.4301 0.51 21.5001 0.33 21.6401 0.2C21.7701 0.07 21.9501 0 22.1401 0C22.3301 0 22.5101 0.07 22.6401 0.21L24.6701 2.24C24.9401 2.52 24.9401 2.96 24.6701 3.24L22.6401 5.27C22.5001 5.4 22.3201 5.47 22.1401 5.47Z" fill="#0075DF"/>
</svg>
