<svg width="26" height="26" viewBox="0 0 26 26" fill="none" xmlns="http://www.w3.org/2000/svg">
<path d="M23.7148 6.19531H16.8594V2.28516C16.8594 1.02512 15.8343 0 14.5742 0H2.28516C1.02512 0 0 1.02512 0 2.28516V23.7148C0 24.9749 1.02512 26 2.28516 26H14.5742C15.8343 26 16.8594 24.9749 16.8594 23.7148V19.46L19.46 16.8594H23.7148C24.9749 16.8594 26 15.8343 26 14.5742V8.48047C26 7.22043 24.9749 6.19531 23.7148 6.19531ZM1.52344 2.28516C1.52344 1.86514 1.86514 1.52344 2.28516 1.52344H14.5742C14.9942 1.52344 15.3359 1.86514 15.3359 2.28516V3.04688H1.52344V2.28516ZM15.3359 23.7148C15.3359 24.1349 14.9942 24.4766 14.5742 24.4766H2.28516C1.86514 24.4766 1.52344 24.1349 1.52344 23.7148V21.4297H15.3359V23.7148ZM15.3359 19.9062H1.52344V4.57031H15.3359V6.19531H14.5742C13.3142 6.19531 12.2891 7.22043 12.2891 8.48047V14.5742C12.2891 15.8343 13.3142 16.8594 14.5742 16.8594H15.3359C15.3359 17.2094 15.3359 19.5778 15.3359 19.9062ZM24.4766 14.5742C24.4766 14.9942 24.1349 15.3359 23.7148 15.3359H19.1445C18.9425 15.3359 18.7488 15.4162 18.6059 15.559L16.8594 17.3056V16.0978V16.0977C16.8594 15.677 16.5183 15.3359 16.0977 15.3359H14.5742C14.1542 15.3359 13.8125 14.9942 13.8125 14.5742V8.48047C13.8125 8.06046 14.1542 7.71875 14.5742 7.71875H23.7148C24.1349 7.71875 24.4766 8.06046 24.4766 8.48047V14.5742Z" fill="#0075DF"/>
<path d="M22.1914 9.24219H16.0977C15.677 9.24219 15.3359 9.58323 15.3359 10.0039C15.3359 10.4246 15.677 10.7656 16.0977 10.7656H22.1914C22.6121 10.7656 22.9531 10.4246 22.9531 10.0039C22.9531 9.58323 22.6121 9.24219 22.1914 9.24219Z" fill="#0075DF"/>
<path d="M19.1445 12.2891H16.0977C15.677 12.2891 15.3359 12.6301 15.3359 13.0508C15.3359 13.4715 15.677 13.8125 16.0977 13.8125H19.1445C19.5652 13.8125 19.9062 13.4715 19.9062 13.0508C19.9062 12.6301 19.5652 12.2891 19.1445 12.2891Z" fill="#0075DF"/>
</svg>
